<mxfile host="app.diagrams.net" modified="2022-10-11T18:03:32.318Z" agent="5.0 (Macintosh; Intel Mac OS X 10_15_7) AppleWebKit/605.1.15 (KHTML, like Gecko) Version/14.1.2 Safari/605.1.15" etag="2Mr-EANtJTeexeGRVWoc" version="20.4.0" type="github">
  <diagram id="Miiq5ZpjRM8NVY3mzZSe" name="Page-1">
    <mxGraphModel dx="367" dy="877" grid="1" gridSize="10" guides="1" tooltips="1" connect="1" arrows="1" fold="1" page="1" pageScale="1" pageWidth="827" pageHeight="1169" math="0" shadow="0">
      <root>
        <mxCell id="0" />
        <mxCell id="1" parent="0" />
        <mxCell id="3H97EC3SBiXMJRRDZCVb-1" value="Shape" style="swimlane;fontStyle=1;childLayout=stackLayout;horizontal=1;startSize=26;horizontalStack=0;resizeParent=1;resizeParentMax=0;resizeLast=0;collapsible=1;marginBottom=0;align=center;fontSize=14;" parent="1" vertex="1">
          <mxGeometry x="40" y="160" width="160" height="86" as="geometry" />
        </mxCell>
        <mxCell id="3H97EC3SBiXMJRRDZCVb-2" value="+ field: type" style="text;strokeColor=none;fillColor=none;spacingLeft=4;spacingRight=4;overflow=hidden;rotatable=0;points=[[0,0.5],[1,0.5]];portConstraint=eastwest;fontSize=12;" parent="3H97EC3SBiXMJRRDZCVb-1" vertex="1">
          <mxGeometry y="26" width="160" height="30" as="geometry" />
        </mxCell>
        <mxCell id="3H97EC3SBiXMJRRDZCVb-3" value="position(tuple)" style="text;strokeColor=none;fillColor=none;spacingLeft=4;spacingRight=4;overflow=hidden;rotatable=0;points=[[0,0.5],[1,0.5]];portConstraint=eastwest;fontSize=12;" parent="3H97EC3SBiXMJRRDZCVb-1" vertex="1">
          <mxGeometry y="56" width="160" height="30" as="geometry" />
        </mxCell>
        <mxCell id="mpej6ErdArCGkW5e9YPQ-1" value="Square" style="swimlane;fontStyle=1;childLayout=stackLayout;horizontal=1;startSize=26;horizontalStack=0;resizeParent=1;resizeParentMax=0;resizeLast=0;collapsible=1;marginBottom=0;align=center;fontSize=14;" vertex="1" parent="1">
          <mxGeometry x="40" y="320" width="160" height="150" as="geometry" />
        </mxCell>
        <mxCell id="mpej6ErdArCGkW5e9YPQ-2" value="+ field: type" style="text;strokeColor=none;fillColor=none;spacingLeft=4;spacingRight=4;overflow=hidden;rotatable=0;points=[[0,0.5],[1,0.5]];portConstraint=eastwest;fontSize=12;" vertex="1" parent="mpej6ErdArCGkW5e9YPQ-1">
          <mxGeometry y="26" width="160" height="30" as="geometry" />
        </mxCell>
        <mxCell id="mpej6ErdArCGkW5e9YPQ-3" value="width" style="text;strokeColor=none;fillColor=none;spacingLeft=4;spacingRight=4;overflow=hidden;rotatable=0;points=[[0,0.5],[1,0.5]];portConstraint=eastwest;fontSize=12;" vertex="1" parent="mpej6ErdArCGkW5e9YPQ-1">
          <mxGeometry y="56" width="160" height="30" as="geometry" />
        </mxCell>
        <mxCell id="mpej6ErdArCGkW5e9YPQ-4" value="height&#xa;&#xa;area" style="text;strokeColor=none;fillColor=none;spacingLeft=4;spacingRight=4;overflow=hidden;rotatable=0;points=[[0,0.5],[1,0.5]];portConstraint=eastwest;fontSize=12;" vertex="1" parent="mpej6ErdArCGkW5e9YPQ-1">
          <mxGeometry y="86" width="160" height="64" as="geometry" />
        </mxCell>
        <mxCell id="mpej6ErdArCGkW5e9YPQ-5" value="Circle" style="swimlane;fontStyle=1;childLayout=stackLayout;horizontal=1;startSize=26;horizontalStack=0;resizeParent=1;resizeParentMax=0;resizeLast=0;collapsible=1;marginBottom=0;align=center;fontSize=14;" vertex="1" parent="1">
          <mxGeometry x="240" y="320" width="160" height="120" as="geometry" />
        </mxCell>
        <mxCell id="mpej6ErdArCGkW5e9YPQ-6" value="+ field: type" style="text;strokeColor=none;fillColor=none;spacingLeft=4;spacingRight=4;overflow=hidden;rotatable=0;points=[[0,0.5],[1,0.5]];portConstraint=eastwest;fontSize=12;" vertex="1" parent="mpej6ErdArCGkW5e9YPQ-5">
          <mxGeometry y="26" width="160" height="30" as="geometry" />
        </mxCell>
        <mxCell id="mpej6ErdArCGkW5e9YPQ-7" value="radius&#xa;&#xa;area" style="text;strokeColor=none;fillColor=none;spacingLeft=4;spacingRight=4;overflow=hidden;rotatable=0;points=[[0,0.5],[1,0.5]];portConstraint=eastwest;fontSize=12;" vertex="1" parent="mpej6ErdArCGkW5e9YPQ-5">
          <mxGeometry y="56" width="160" height="64" as="geometry" />
        </mxCell>
      </root>
    </mxGraphModel>
  </diagram>
</mxfile>
